HIERARCHY
ROOT Pelvis
{
	OFFSET 0.000000 0.000000 0.000000
	CHANNELS 6 Xposition Yposition Zposition Zrotation Yrotation Xrotation 
	JOINT Left_hip
	{
		OFFSET 0.067986 -0.089946 -0.007639
		CHANNELS 3 Zrotation Yrotation Xrotation
		JOINT Left_knee
		{
			OFFSET 0.036308 -0.388288 -0.004016
			CHANNELS 3 Zrotation Yrotation Xrotation
			JOINT Left_ankle
			{
				OFFSET -0.012264 -0.413250 -0.042878
				CHANNELS 3 Zrotation Yrotation Xrotation
				JOINT Left_foot
				{
					OFFSET 0.024043 -0.058563 0.118570
					CHANNELS 3 Zrotation Yrotation Xrotation
					End Site
					{
						OFFSET 0.000000 0.000000 0.000000
					}
				}
			}
		}
	}
	JOINT Right_hip
	{
		OFFSET -0.065648 -0.089374 -0.003858
		CHANNELS 3 Zrotation Yrotation Xrotation
		JOINT Right_knee
		{
			OFFSET -0.042132 -0.395021 -0.006361
			CHANNELS 3 Zrotation Yrotation Xrotation
			JOINT Right_ankle
			{
				OFFSET 0.014805 -0.413264 -0.041054
				CHANNELS 3 Zrotation Yrotation Xrotation
				JOINT Right_foot
				{
					OFFSET -0.021758 -0.049013 0.121832
					CHANNELS 3 Zrotation Yrotation Xrotation
					End Site
					{
						OFFSET 0.000000 0.000000 0.000000
					}
				}
			}
		}
	}
	JOINT Spine1
	{
		OFFSET -0.002755 0.104406 -0.022277
		CHANNELS 3 Zrotation Yrotation Xrotation
		JOINT Spine2
		{
			OFFSET 0.004136 0.129393 -0.002186
			CHANNELS 3 Zrotation Yrotation Xrotation
			JOINT Spine3
			{
				OFFSET 0.001906 0.049304 0.025578
				CHANNELS 3 Zrotation Yrotation Xrotation
				JOINT Neck
				{
					OFFSET -0.004620 0.210958 -0.044063
					CHANNELS 3 Zrotation Yrotation Xrotation
					JOINT Head
					{
						OFFSET 0.003833 0.067393 0.052435
						CHANNELS 3 Zrotation Yrotation Xrotation
						End Site
						{
							OFFSET 0.000000 0.000000 0.000000
						}
					}
				}
				JOINT Left_collar
				{
					OFFSET 0.070771 0.116689 -0.037192
					CHANNELS 3 Zrotation Yrotation Xrotation
					JOINT Left_shoulder
					{
						OFFSET 0.080652 0.031596 -0.005617
						CHANNELS 3 Zrotation Yrotation Xrotation
						JOINT Left_elbow
						{
							OFFSET 0.262654 -0.015020 -0.027939
							CHANNELS 3 Zrotation Yrotation Xrotation
							JOINT Left_wrist
							{
								OFFSET 0.250438 0.010062 -0.000990
								CHANNELS 3 Zrotation Yrotation Xrotation
								JOINT Left_palm
								{
									OFFSET 0.081198 -0.010037 -0.013706
									CHANNELS 3 Zrotation Yrotation Xrotation
									End Site
									{
										OFFSET 0.000000 0.000000 0.000000
									}
								}
							}
						}
					}
				}
				JOINT Right_collar
				{
					OFFSET -0.072972 0.115556 -0.040762
					CHANNELS 3 Zrotation Yrotation Xrotation
					JOINT Right_shoulder
					{
						OFFSET -0.082917 0.031841 -0.006673
						CHANNELS 3 Zrotation Yrotation Xrotation
						JOINT Right_elbow
						{
							OFFSET -0.252882 -0.013790 -0.020410
							CHANNELS 3 Zrotation Yrotation Xrotation
							JOINT Right_wrist
							{
								OFFSET -0.255570 0.009163 -0.005138
								CHANNELS 3 Zrotation Yrotation Xrotation
								JOINT Right_palm
								{
									OFFSET -0.080804 -0.007282 -0.010415
									CHANNELS 3 Zrotation Yrotation Xrotation
									End Site
									{
										OFFSET 0.000000 0.000000 0.000000
									}
								}
							}
						}
					}
				}
			}
		}
	}
}
MOTION
Frames: 11
Frame Time: 0.100000
0.174808 0.410715 -0.384881 176.057001 22.005142 -42.625960 13.641114 4.421975 -50.061734 -14.797219 10.162880 84.194322 -1.886110 7.005751 -7.299848 13.619831 9.087078 -20.238301 -11.065707 -5.749793 -49.566208 6.138756 -7.927204 88.449572 5.471415 -7.808128 -12.312721 -24.470340 0.980705 -13.936279 1.868337 -0.896756 45.405221 1.261803 -4.521046 -1.034744 3.076227 1.186325 0.160944 -9.473968 0.129541 -4.454695 10.161232 3.890330 -10.108824 -9.110954 -23.099601 -4.969687 -30.395025 -32.462893 6.487615 36.125562 -68.536926 -31.348129 8.362267 -6.649822 -22.873432 -20.186168 -7.417428 -4.148776 8.350841 23.954861 -3.412169 33.222730 15.120573 5.828980 -33.847631 84.841071 -33.539472 -2.795969 9.911053 -36.010235 18.232373 6.770977 1.803681 
0.174655 0.410979 -0.385129 176.043597 21.961465 -42.411441 13.725734 4.457912 -50.319446 -14.704138 10.240264 84.237533 -1.796888 6.820964 -7.283351 13.506897 9.412508 -19.973968 -11.073800 -5.671546 -49.826251 6.038690 -8.011496 88.461503 5.589221 -7.640106 -12.272462 -24.765389 0.579422 -14.017987 1.811449 -1.034548 45.679367 1.248905 -4.714752 -2.245714 3.160353 1.150645 0.104390 -10.265296 1.119685 -4.013039 9.937584 4.092218 -9.746196 -8.386280 -24.044692 -5.835698 -30.417001 -34.606009 5.584275 33.384256 -63.038393 -30.247448 7.253384 -6.246759 -22.515031 -19.731675 -7.167322 -3.664538 8.306888 24.654936 -3.944668 34.643106 16.009487 6.475244 -28.648220 83.157517 -28.288579 -1.798631 9.688624 -35.246797 18.055901 6.775344 1.801984 
0.174820 0.411041 -0.385253 175.964549 21.981793 -42.749415 13.726293 4.464847 -50.017809 -14.805797 10.152965 84.215059 -1.746476 6.877589 -7.283194 13.614801 9.537631 -19.756128 -11.052746 -5.592505 -49.462595 6.085259 -8.013228 88.372207 5.561861 -7.618011 -12.260206 -24.865666 0.208408 -14.142005 1.793779 -0.910980 45.648112 1.289147 -4.911362 -1.950679 3.267293 1.061161 -0.054502 -10.706064 1.821518 -3.881151 9.854704 4.104840 -9.471128 -7.966463 -25.618927 -6.076194 -30.026170 -36.318677 4.572480 28.227116 -57.305429 -27.011901 4.572223 -6.254403 -21.626037 -19.174270 -7.032523 -3.735544 8.267180 25.766317 -4.238173 35.260047 16.378844 6.548262 -25.822150 81.264827 -25.884433 0.086230 9.834598 -34.723428 17.911636 6.670700 1.647974 
0.174711 0.410771 -0.385090 175.856757 22.051315 -43.236711 13.625360 4.340572 -49.585018 -14.956773 9.996985 84.230149 -1.632169 7.101282 -7.357489 13.643077 9.504004 -19.435277 -11.115144 -5.622405 -48.884298 6.179273 -8.030380 88.266979 5.470748 -7.525354 -12.230887 -24.689277 -0.234679 -14.251550 1.778466 -0.750095 45.289655 1.387628 -5.131680 -1.111776 3.398571 0.928072 -0.055360 -11.069803 2.121115 -3.776850 9.807949 4.334121 -9.489750 -7.920069 -27.324671 -5.737549 -30.079531 -36.925445 4.207917 22.898486 -52.336014 -22.879876 3.297561 -6.389879 -20.795408 -18.310225 -6.636477 -3.603343 8.079071 26.821857 -4.430791 35.280346 16.405861 6.184356 -23.173489 80.073657 -23.841469 0.686765 10.155503 -34.327243 17.702129 6.224085 1.668356 
0.174621 0.411118 -0.385252 175.876249 21.972191 -43.327441 13.654990 4.356102 -49.492613 -14.957188 10.000380 84.265234 -1.681492 7.156897 -7.425313 13.841150 9.490409 -19.343896 -11.101128 -5.533807 -48.820555 6.174098 -8.033531 88.275484 5.395639 -7.478340 -12.197695 -24.696327 -0.382966 -14.279521 1.647253 -0.856874 45.253869 1.278027 -5.292205 -0.939880 3.304214 0.859250 -0.126784 -10.961807 1.963745 -3.920381 9.952813 4.904813 -9.405381 -8.866516 -27.386656 -5.127675 -31.021987 -36.148794 4.816774 22.339491 -52.005296 -22.614047 2.976279 -6.396887 -21.257582 -18.374410 -6.574845 -3.439571 8.346492 26.929720 -4.299669 35.326883 16.860753 6.107377 -23.381023 80.125324 -24.299345 0.741889 10.164342 -34.201523 17.719913 6.054749 1.851265 
0.174948 0.411302 -0.385360 175.858066 21.992089 -43.426246 13.686643 4.346420 -49.427137 -14.975601 9.999166 84.240459 -1.692694 7.115855 -7.405898 13.835728 9.505262 -19.350697 -11.094535 -5.541867 -48.754773 6.156592 -8.043658 88.288251 5.406518 -7.472097 -12.199346 -24.732419 -0.388275 -14.239547 1.596836 -0.784752 45.209983 1.178799 -5.234614 -0.743472 3.229254 0.894862 -0.135921 -10.688578 1.583696 -3.724614 10.136098 4.739090 -9.317755 -9.078254 -27.125810 -5.011748 -31.426564 -35.820354 5.188090 22.953618 -52.921598 -22.894335 3.099481 -6.437109 -21.387108 -18.510439 -6.628916 -3.551553 8.228636 26.761469 -4.273309 35.170935 16.851401 6.002477 -25.434469 80.547264 -26.325612 0.586620 10.214042 -34.451554 17.760423 6.055788 1.862102 
0.174757 0.411073 -0.385250 175.820856 22.023700 -43.471171 13.681004 4.307373 -49.393484 -14.962576 10.000753 84.240451 -1.662639 7.092550 -7.408469 13.796483 9.496858 -19.374144 -11.122356 -5.589212 -48.675329 6.139657 -8.060891 88.272917 5.458924 -7.440072 -12.219885 -24.784594 -0.352105 -14.218029 1.632930 -0.723456 45.094361 1.151416 -5.160760 -0.698209 3.200121 0.956093 -0.147800 -10.782885 1.593709 -3.611826 10.001850 4.641869 -9.231502 -8.921619 -26.954890 -5.134445 -31.469424 -35.831068 5.201031 23.448799 -53.282563 -23.151357 2.991643 -6.460276 -21.272937 -18.524497 -6.664665 -3.649577 8.174104 26.702830 -4.289651 35.110470 16.914710 5.971806 -26.747804 80.589626 -27.556338 0.684602 10.262779 -34.412119 17.776800 6.095823 1.784598 
0.174499 0.411178 -0.385339 175.723794 22.039476 -43.511958 13.719218 4.292237 -49.436819 -14.940719 10.006331 84.272173 -1.605890 7.024459 -7.384319 13.739217 9.568246 -19.435306 -11.105857 -5.577180 -48.656438 6.094860 -8.084174 88.270872 5.526278 -7.417051 -12.234066 -24.946748 -0.401915 -14.191487 1.676631 -0.720524 45.080633 1.161678 -5.122123 -0.683784 3.203304 0.993117 -0.242368 -10.795869 1.737410 -3.690614 9.881258 4.654263 -9.224468 -8.835199 -26.773803 -5.203236 -31.616663 -35.703762 5.152489 24.147393 -53.499705 -23.419269 2.112553 -6.324861 -20.723284 -18.617890 -6.834944 -3.928809 8.212843 26.699404 -4.265602 35.240065 17.147259 5.973991 -28.827496 80.494491 -29.373080 1.401260 10.244684 -34.085184 17.863717 6.214977 1.579627 
0.174384 0.411371 -0.385634 175.651242 22.084718 -43.546831 13.728751 4.280987 -49.475282 -14.952257 10.014205 84.262068 -1.585168 7.004005 -7.356337 13.755965 9.584346 -19.504573 -11.095340 -5.574614 -48.668519 6.072512 -8.071349 88.264903 5.634506 -7.439348 -12.223854 -25.163368 -0.420825 -14.234103 1.675170 -0.685576 45.108280 1.172892 -5.073226 -0.622953 3.204080 1.031563 -0.317009 -10.654705 1.708651 -3.807083 9.915243 4.581268 -9.221075 -8.765516 -26.522287 -5.218215 -31.614631 -35.544290 5.181379 24.396325 -54.079838 -22.967561 1.438555 -6.288754 -19.974152 -18.682446 -7.012476 -4.241805 8.248424 26.631492 -4.220009 35.281848 17.357072 5.937585 -30.350151 80.462000 -30.654661 1.905344 10.249638 -33.817712 17.891806 6.319032 1.417813 
0.174211 0.411333 -0.385548 175.631809 22.079892 -43.584571 13.700564 4.188368 -49.466353 -14.945858 9.975429 84.286594 -1.600928 7.068890 -7.375031 13.885453 9.539266 -19.570967 -11.084854 -5.583970 -48.620708 6.044405 -8.049630 88.275987 5.761494 -7.436273 -12.250422 -25.411822 -0.431215 -14.325775 1.691547 -0.651396 45.030839 1.146933 -5.008966 -0.327643 3.162647 1.072186 -0.473585 -10.509865 1.678619 -3.803448 9.931352 4.534409 -9.294183 -8.832360 -26.074179 -5.190327 -31.423690 -35.206926 5.208346 25.158078 -55.557792 -22.162286 1.156938 -6.355677 -18.261367 -18.762220 -7.282755 -4.725148 8.330533 26.451590 -4.098930 35.158482 17.563182 5.820756 -32.171206 80.461121 -32.101954 2.301692 10.448975 -33.364869 17.906973 6.464756 1.279903 
0.174328 0.411327 -0.385556 175.628930 22.075520 -43.578505 13.710807 4.148942 -49.482568 -14.975941 9.952799 84.256979 -1.561244 7.110965 -7.343056 13.899042 9.487221 -19.761270 -11.033587 -5.632250 -48.650141 6.048088 -8.010939 88.291352 5.959358 -7.473290 -12.261428 -25.822325 -0.401696 -14.460132 1.646567 -0.632456 45.027508 1.128537 -4.947097 -0.057903 3.122556 1.098927 -0.630518 -10.294233 1.668869 -4.105958 9.873667 4.504121 -9.327930 -8.718881 -25.362538 -5.215915 -31.110201 -34.703502 5.065367 27.544889 -58.125401 -22.226974 1.065037 -5.897678 -15.903074 -18.884681 -7.715949 -5.422586 8.413292 26.103500 -3.927335 35.137394 17.887893 5.714744 -35.482343 80.551683 -34.642968 2.673415 10.341589 -32.637742 17.965241 6.764282 1.025765 
